<svg width="143" height="40" viewBox="0 0 143 40" fill="none" xmlns="http://www.w3.org/2000/svg">
<path d="M16.2422 12.1614V32.0235L33.4346 22.0925L16.2422 12.1614Z" fill="#FFDA22"/>
<path fill-rule="evenodd" clip-rule="evenodd" d="M4.43837 18.9977C5.47399 9.75228 3.37081 6.93802 1.71926 4.7281C0.7878 3.48171 0 2.42756 0 0.520304C1.99246 2.09863 3.85435 1.58918 6.13428 0.96534C8.81284 0.232427 12.0684 -0.65837 16.7906 1.49296C18.9517 2.47748 20.3781 1.57356 18.5995 0C28.0777 0.446274 37.1076 9.16225 38.7387 19.0828C38.9106 20.0649 39.0002 21.0752 39.0002 22.1065C39.0002 22.15 39.0001 22.1934 38.9997 22.2368V22.2407L38.9997 22.2407C38.9276 31.799 31.1568 39.5252 21.5815 39.5252C11.9615 39.5252 4.16286 31.7266 4.16286 22.1065C4.16286 22.1009 4.16287 22.0952 4.16287 22.0896L12.8718 37.1741H30.2905L38.9998 22.0889L30.2905 7.0037H12.8718L4.16287 22.0883C4.16396 21.0335 4.25878 20.0007 4.43947 18.9978L4.43837 18.9977Z" fill="#0078CE"/>
<path d="M56.84 13.7253V16.6053H53.72V30.5253H50.408V16.6053H47.288V13.7253H56.84ZM57.3584 17.5893H60.5264V26.5173C60.5264 26.7893 60.6544 27.0773 60.9104 27.3813C61.1664 27.6693 61.4064 27.8133 61.6304 27.8133C61.8544 27.8133 62.3184 27.4853 63.0224 26.8293V17.5893H66.1904V30.5253H63.7424L63.4544 29.1093C62.2544 30.2453 61.4144 30.8133 60.9344 30.8133C60.4544 30.8133 59.7344 30.3733 58.7744 29.4933C57.8304 28.5973 57.3584 27.7173 57.3584 26.8533V17.5893ZM72.2358 30.5253H69.0678V22.2453C69.0678 21.4293 68.9638 20.7973 68.7558 20.3493C68.5638 19.8853 68.2678 19.4853 67.8678 19.1493L70.5078 17.3013C71.0838 17.7813 71.5238 18.3413 71.8278 18.9813C73.0118 17.8613 73.8438 17.3013 74.3238 17.3013C74.6438 17.3013 75.1318 17.5973 75.7878 18.1893C76.4438 18.7813 76.8278 19.4293 76.9398 20.1333L74.3718 21.9813C74.3558 21.5973 74.2598 21.2213 74.0838 20.8533C73.9238 20.4853 73.7798 20.3013 73.6518 20.3013C73.3798 20.3013 72.9078 20.6373 72.2358 21.3093V30.5253ZM78.2553 30.5253V17.4213C78.2553 16.6053 78.1593 15.9813 77.9673 15.5493C77.7753 15.1173 77.4713 14.7253 77.0553 14.3733L79.6953 12.5253C80.8473 13.4373 81.4233 14.7253 81.4233 16.3893V18.5733C82.3833 17.7253 83.0713 17.3013 83.4873 17.3013C83.9193 17.3013 84.5673 17.7333 85.4313 18.5973C86.3113 19.4453 86.8153 20.0693 86.9433 20.4693C87.1193 20.8693 87.2073 22.0693 87.2073 24.0693C87.2073 26.0533 87.1193 27.2453 86.9433 27.6453C86.8153 28.0453 86.3113 28.6773 85.4313 29.5413C84.5673 30.3893 83.9433 30.8133 83.5593 30.8133C82.9993 30.8133 82.1033 30.2293 80.8713 29.0613L80.6073 30.5253H78.2553ZM81.5433 26.8773C81.6553 27.0693 81.8793 27.2773 82.2153 27.5013C82.5673 27.7093 82.8313 27.8133 83.0073 27.8133C83.1833 27.8133 83.3673 27.7093 83.5593 27.5013C83.7673 27.2933 83.9193 27.0773 84.0153 26.8533C84.1113 26.6293 84.1593 25.7013 84.1593 24.0693C84.1593 22.4213 84.1113 21.4933 84.0153 21.2853C83.9193 21.0613 83.7673 20.8453 83.5593 20.6373C83.3673 20.4133 83.1833 20.3013 83.0073 20.3013C82.8473 20.3013 82.5913 20.4133 82.2393 20.6373C81.9033 20.8453 81.6793 21.0293 81.5673 21.1893C81.4393 21.4613 81.3753 22.4293 81.3753 24.0933C81.3753 25.7413 81.4313 26.6693 81.5433 26.8773ZM92.5299 27.6933C92.7859 27.9333 92.9859 28.0533 93.1299 28.0533C93.2739 28.0533 93.4659 27.9333 93.7059 27.6933C93.9619 27.4533 94.1459 27.2373 94.2579 27.0453C94.4659 26.6933 94.5699 25.7013 94.5699 24.0693C94.5699 22.4373 94.4659 21.4373 94.2579 21.0693C94.1459 20.8773 93.9619 20.6613 93.7059 20.4213C93.4659 20.1813 93.2739 20.0613 93.1299 20.0613C92.9859 20.0613 92.7859 20.1813 92.5299 20.4213C92.2899 20.6613 92.1139 20.8773 92.0019 21.0693C91.7939 21.4213 91.6899 22.4133 91.6899 24.0453C91.6899 25.6773 91.7939 26.6773 92.0019 27.0453C92.1139 27.2373 92.2899 27.4533 92.5299 27.6933ZM95.2899 29.6373C94.3139 30.4213 93.5939 30.8133 93.1299 30.8133C92.6659 30.8133 91.9379 30.4213 90.9459 29.6373C89.9699 28.8533 89.3699 28.2693 89.1459 27.8853C88.8099 27.2933 88.6419 26.0133 88.6419 24.0453C88.6419 22.0773 88.8099 20.8053 89.1459 20.2293C89.3699 19.8453 89.9699 19.2613 90.9459 18.4773C91.9379 17.6933 92.6659 17.3013 93.1299 17.3013C93.5939 17.3013 94.3139 17.6933 95.2899 18.4773C96.2819 19.2613 96.8899 19.8453 97.1139 20.2293C97.4499 20.8053 97.6179 22.0773 97.6179 24.0453C97.6179 26.0133 97.4499 27.2933 97.1139 27.8853C96.8899 28.2693 96.2819 28.8533 95.2899 29.6373ZM102.648 14.7573C103.736 13.8773 104.496 13.4373 104.928 13.4373C105.376 13.4373 106.08 13.8613 107.04 14.7093C108.016 15.5413 108.624 16.1333 108.864 16.4853C109.104 16.8213 109.224 17.3813 109.224 18.1653C109.224 18.9493 109.104 19.5413 108.864 19.9413C108.624 20.3253 108.184 20.8213 107.544 21.4293C108.552 22.2613 109.264 22.9573 109.68 23.5173C109.856 23.8053 109.944 24.3493 109.944 25.1493C109.944 25.9333 109.856 26.4453 109.68 26.6853C109.392 27.3093 108.696 28.1093 107.592 29.0853C106.488 30.0453 105.616 30.5253 104.976 30.5253H100.008V20.2533C100.008 18.9573 99.9121 18.0453 99.7201 17.5173C99.5441 16.9893 99.1601 16.3653 98.5681 15.6453L101.736 13.4373C102.12 13.7573 102.424 14.1973 102.648 14.7573ZM103.32 23.2293V27.6213H104.976C105.184 27.6213 105.44 27.4613 105.744 27.1413C106.048 26.8053 106.264 26.5173 106.392 26.2773C106.536 26.0213 106.608 25.5093 106.608 24.7413C106.608 24.2133 106.208 23.7093 105.408 23.2293H103.32ZM103.32 18.8613V20.5653H104.544C104.72 20.5653 104.936 20.4133 105.192 20.1093C105.464 19.7893 105.648 19.5093 105.744 19.2693C105.84 19.0293 105.888 18.7413 105.888 18.4053C105.888 18.0693 105.728 17.6933 105.408 17.2773C105.088 16.8453 104.792 16.6293 104.52 16.6293C104.248 16.6293 103.824 16.7333 103.248 16.9413C103.296 17.5653 103.32 18.2053 103.32 18.8613ZM120.988 17.5893V27.4293C121.084 27.9893 121.46 28.4853 122.116 28.9173L119.956 30.7653C119.748 30.6213 119.492 30.3653 119.188 29.9973C118.884 29.6293 118.628 29.2533 118.42 28.8693C117.092 30.1653 116.164 30.8133 115.636 30.8133C115.252 30.8133 114.628 30.3893 113.764 29.5413C112.916 28.6933 112.388 28.0053 112.18 27.4773C111.972 26.9493 111.868 25.8133 111.868 24.0693C111.868 22.3093 111.972 21.1653 112.18 20.6373C112.388 20.1093 112.916 19.4213 113.764 18.5733C114.628 17.7253 115.252 17.3013 115.636 17.3013C116.196 17.3013 117.1 17.8773 118.348 19.0293L118.636 17.5893H120.988ZM117.652 21.2613C117.54 21.0533 117.308 20.8453 116.956 20.6373C116.62 20.4133 116.364 20.3013 116.188 20.3013C116.012 20.3013 115.82 20.4053 115.612 20.6133C115.42 20.8213 115.292 21.0133 115.228 21.1893C115.02 21.4773 114.916 22.4373 114.916 24.0693C114.916 25.6853 115.02 26.6373 115.228 26.9253C115.292 27.0853 115.42 27.2773 115.612 27.5013C115.82 27.7093 116.012 27.8133 116.188 27.8133C116.364 27.8133 116.62 27.7093 116.956 27.5013C117.308 27.2773 117.532 27.0773 117.628 26.9013C117.74 26.7253 117.804 25.7893 117.82 24.0933C117.82 22.3973 117.764 21.4533 117.652 21.2613ZM127.197 30.5253H124.029V22.2453C124.029 21.4293 123.925 20.7973 123.717 20.3493C123.525 19.8853 123.229 19.4853 122.829 19.1493L125.469 17.3013C126.045 17.7813 126.485 18.3413 126.789 18.9813C127.973 17.8613 128.805 17.3013 129.285 17.3013C129.605 17.3013 130.093 17.5973 130.749 18.1893C131.405 18.7813 131.789 19.4293 131.901 20.1333L129.333 21.9813C129.317 21.5973 129.221 21.2213 129.045 20.8533C128.885 20.4853 128.741 20.3013 128.613 20.3013C128.341 20.3013 127.869 20.6373 127.197 21.3093V30.5253ZM132.64 20.4693C132.768 20.0693 133.264 19.4453 134.128 18.5973C135.008 17.7333 135.656 17.3013 136.072 17.3013C136.488 17.3013 137.2 17.7333 138.208 18.5973V17.4213C138.208 16.6053 138.112 15.9813 137.92 15.5493C137.728 15.1173 137.424 14.7253 137.008 14.3733L139.648 12.5253C140.8 13.4373 141.376 14.7253 141.376 16.3893V30.5253H138.928L138.64 29.1093C137.472 30.2453 136.6 30.8133 136.024 30.8133C135.64 30.8133 135.008 30.3893 134.128 29.5413C133.264 28.6773 132.768 28.0453 132.64 27.6453C132.464 27.2453 132.376 26.0533 132.376 24.0693C132.376 22.0693 132.464 20.8693 132.64 20.4693ZM138.04 21.2613C137.928 21.0533 137.696 20.8453 137.344 20.6373C137.008 20.4133 136.752 20.3013 136.576 20.3013C136.4 20.3013 136.208 20.4053 136 20.6133C135.808 20.8213 135.664 21.0373 135.568 21.2613C135.472 21.4853 135.424 22.4213 135.424 24.0693C135.424 25.7013 135.472 26.6293 135.568 26.8533C135.664 27.0613 135.808 27.2773 136 27.5013C136.208 27.7093 136.392 27.8133 136.552 27.8133C136.728 27.8133 136.984 27.7093 137.32 27.5013C137.672 27.2773 137.904 27.0853 138.016 26.9253C138.112 26.7013 138.176 26.0533 138.208 24.9813V24.0933C138.208 22.3973 138.152 21.4533 138.04 21.2613Z" fill="white"/>
</svg>
